# xmcd
#
# Track frame offsets: 
#        150
#        13217
#        25900
#        36540
#        46450
#        56852
#        66292
#        75135
#        84522
#        96420
#        109532
#        122850
#        134990
#        147192
#        156867
#        166895
#        177070
#        189470
#        199647
#        211400
#        222947
#        233872
#        243820
#        253230
#        263347
#        272497
#        281907
#        290862
#
# Disc length: 3994 seconds
#
# Revision: 2
# Processed by: cddbd v1.5.2PL0 Copyright (c) Steve Scherf et al.
# Submitted via: ExactAudioCopyFreeDBPlugin 1.0
#
DISCID=a70f981c
DTITLE=Floyd Tillman - I Love You So Much It Hurts_CD5
DYEAR=2004
DGENRE=Country
TTITLE0=She's Long Gone 
TTITLE1=Let's Make Memories Tonight 
TTITLE2=Magnolia Garden Waltz 
TTITLE3=Link Davis - Grasshopper
TTITLE4=Save A Little For Me 
TTITLE5=Baby, I Just Want You 
TTITLE6=Link Davis - Big Houston
TTITLE7=Cockroach 
TTITLE8=Heartaches For Gold 
TTITLE9=Running Away 
TTITLE10=Floyd's Song 
TTITLE11=Cold Cold Beer 
TTITLE12=The Record Goes Round And Round 
TTITLE13=My Heart Won't Forget 
TTITLE14=On You My Life Depends 
TTITLE15=I'm Free From The Love I Had For You 
TTITLE16=I Love You So Much It Hurts 
TTITLE17=I Gotta Have My Baby Back 
TTITLE18=It Makes No Difference Now 
TTITLE19=Some Other World 
TTITLE20=Slipping Around 
TTITLE21=This Cold War With You 
TTITLE22=I've Got The Craziest Feeling 
TTITLE23=I'll Keep On Loving You 
TTITLE24=They Took The Stars Out Of Heaven 
TTITLE25=Each Night At Nine 
TTITLE26=Daisy Mae 
TTITLE27=I'll Take What I Can Get 
EXTD=YEAR: 2004
EXTT0=
EXTT1=
EXTT2=
EXTT3=
EXTT4=
EXTT5=
EXTT6=
EXTT7=
EXTT8=
EXTT9=
EXTT10=
EXTT11=
EXTT12=
EXTT13=
EXTT14=
EXTT15=
EXTT16=
EXTT17=
EXTT18=
EXTT19=
EXTT20=
EXTT21=
EXTT22=
EXTT23=
EXTT24=
EXTT25=
EXTT26=
EXTT27=
PLAYORDER=
